<svg width="233" height="203" viewBox="0 0 233 203" fill="none" xmlns="http://www.w3.org/2000/svg">
<path d="M198.648 136.324C199.696 133.181 203.094 131.482 206.237 132.529C209.381 133.577 211.08 136.976 210.032 140.119C206.127 151.834 198.289 167.566 183.479 180.402C168.556 193.335 146.939 202.987 116.192 202.987C85.4453 202.987 63.8286 193.335 48.9062 180.402C34.0953 167.566 26.2575 151.834 22.3525 140.119C21.3047 136.976 23.003 133.577 26.1465 132.529C29.29 131.481 32.6883 133.181 33.7363 136.324C37.177 146.646 44.0305 160.297 56.7656 171.334C69.3895 182.275 88.1741 190.987 116.192 190.987C144.211 190.987 162.995 182.275 175.619 171.334C188.354 160.297 195.208 146.646 198.648 136.324ZM124.884 116.185C124.884 111.389 120.988 107.493 116.192 107.493C111.397 107.493 107.501 111.389 107.501 116.185C107.501 120.98 111.396 124.876 116.192 124.876C120.988 124.876 124.884 120.98 124.884 116.185ZM220.37 123.53C220.37 121.146 218.957 114.739 215.043 106.016C211.238 97.534 205.341 87.4813 197.04 77.8691C180.509 58.7274 154.528 41.3828 116.185 41.3828C77.8489 41.3829 51.8677 58.727 35.335 77.8691C27.033 87.4815 21.1355 97.5349 17.3291 106.017C13.414 114.74 12.0001 121.146 12 123.53C12 126.844 9.31371 129.53 6 129.53C2.68629 129.53 0 126.844 0 123.53C8.80409e-05 118.568 2.26076 110.283 6.38086 101.103C10.5066 91.9095 16.7934 81.1537 25.5889 70.8027L8.05566 53.2695C5.71255 50.9264 5.71263 47.1273 8.05566 44.7842C10.3988 42.441 14.1979 42.441 16.541 44.7842L33.792 62.0352C38.4504 57.5181 43.6478 53.2016 49.4102 49.2705L37.5244 28.6846C35.8676 25.8149 36.8512 22.1452 39.7207 20.4883C42.5904 18.8314 46.2601 19.8148 47.917 22.6846L59.6699 43.041C65.4337 39.9491 71.6674 37.2541 78.3926 35.0947L72.3555 12.5596C71.498 9.35873 73.3978 6.06844 76.5986 5.21094C79.7994 4.35348 83.0898 6.25329 83.9473 9.4541L89.9941 32.0283C96.338 30.6965 103.064 29.8283 110.185 29.5146V6C110.185 2.6864 112.871 0.000181415 116.185 0C119.498 0 122.185 2.68629 122.185 6V29.5137C129.298 29.8268 136.017 30.6943 142.355 32.0234L148.409 9.45312C149.267 6.2525 152.558 4.35361 155.759 5.21191C158.959 6.07027 160.858 9.36011 160 12.5605L153.958 35.0879C160.686 37.2463 166.923 39.9387 172.688 43.0303L184.446 22.6826C186.104 19.8134 189.774 18.8314 192.644 20.4893C195.512 22.1471 196.494 25.8165 194.837 28.6855L182.948 49.2588C188.713 53.1901 193.912 57.5076 198.572 62.0254L215.822 44.7832C218.166 42.4405 221.965 42.4409 224.308 44.7842C226.65 47.1276 226.65 50.9268 224.307 53.2695L206.777 70.792C215.577 81.1466 221.865 91.9071 225.991 101.104C230.11 110.284 232.37 118.569 232.37 123.53C232.37 126.844 229.684 129.53 226.37 129.53C223.056 129.53 220.37 126.844 220.37 123.53ZM136.884 116.185C136.884 127.608 127.616 136.876 116.192 136.876C104.769 136.876 95.501 127.608 95.501 116.185C95.5012 104.761 104.769 95.4932 116.192 95.4932C127.616 95.4932 136.884 104.761 136.884 116.185Z" fill="black"/>
<path d="M157.137 116.148C157.137 93.5308 138.801 75.1964 116.185 75.1964C93.5679 75.1966 75.2336 93.5309 75.2334 116.148C75.2334 138.764 93.5678 157.1 116.185 157.1C138.801 157.1 157.137 138.764 157.137 116.148ZM169.137 116.148C169.137 145.392 145.429 169.1 116.185 169.1C86.9404 169.1 63.2334 145.392 63.2334 116.148C63.2336 86.9035 86.9405 63.1966 116.185 63.1964C145.429 63.1964 169.137 86.9034 169.137 116.148Z" fill="black"/>
</svg>
