<svg width="193" height="202" viewBox="0 0 193 202" fill="none" xmlns="http://www.w3.org/2000/svg">
<path fill-rule="evenodd" clip-rule="evenodd" d="M87.5939 75.4488C87.4638 75.6396 87.3289 75.8271 87.1894 76.0113C87.313 75.8167 87.4479 75.6288 87.5939 75.4488ZM110.464 63.3998C110.561 62.5147 110.614 61.6225 110.622 60.7266L110.623 60.7012V28.002C110.688 26.8281 110.675 25.6538 110.585 24.4866C110.329 25.5688 110.193 26.6981 110.193 27.8596V60.5901C110.193 61.5516 110.286 62.491 110.464 63.3998Z" fill="#020202"/>
<path fill-rule="evenodd" clip-rule="evenodd" d="M25.9408 65.9119C26.1778 65.6875 26.4171 65.4659 26.6584 65.2471C26.4377 65.4876 26.1977 65.71 25.9408 65.9119ZM63.4297 53.4425C63.3585 53.445 63.287 53.4463 63.2152 53.4463L63.4297 53.4425Z" fill="#020202"/>
<path fill-rule="evenodd" clip-rule="evenodd" d="M180.064 62.9222C180.177 62.1903 180.236 61.4402 180.236 60.6762V56.0661C180.123 56.5249 180.064 57.0044 180.064 57.4978V62.9222Z" fill="#020202"/>
<path fill-rule="evenodd" clip-rule="evenodd" d="M63.2152 53.4463L63.4297 53.4425C63.3585 53.445 63.287 53.4463 63.2152 53.4463ZM63.6445 53.4463L63.4297 53.4425C63.501 53.445 63.5726 53.4463 63.6445 53.4463Z" fill="#020202"/>
<path fill-rule="evenodd" clip-rule="evenodd" d="M63.2152 53.4463L63.4297 53.4425C63.3585 53.445 63.287 53.4463 63.2152 53.4463ZM63.6445 53.4463L63.4297 53.4425C63.501 53.445 63.5726 53.4463 63.6445 53.4463Z" fill="#020202"/>
<path fill-rule="evenodd" clip-rule="evenodd" d="M63.2152 53.4463L63.4297 53.4425C63.3585 53.445 63.287 53.4463 63.2152 53.4463Z" fill="#020202"/>
<path fill-rule="evenodd" clip-rule="evenodd" d="M63.4297 53.4425C63.3585 53.445 63.287 53.4463 63.2152 53.4463L63.4297 53.4425Z" fill="#020202"/>
<path fill-rule="evenodd" clip-rule="evenodd" d="M63.4297 53.4425C63.3585 53.445 63.287 53.4463 63.2152 53.4463L63.4297 53.4425Z" fill="#020202"/>
<path fill-rule="evenodd" clip-rule="evenodd" d="M63.2152 53.4463L63.4297 53.4425C63.3585 53.445 63.287 53.4463 63.2152 53.4463Z" fill="#020202"/>
<path fill-rule="evenodd" clip-rule="evenodd" d="M63.2152 53.4463L63.4297 53.4425C63.3585 53.445 63.287 53.4463 63.2152 53.4463Z" fill="#020202"/>
<path fill-rule="evenodd" clip-rule="evenodd" d="M63.2152 53.4463L63.4297 53.4425C63.3585 53.445 63.287 53.4463 63.2152 53.4463Z" fill="#020202"/>
<path fill-rule="evenodd" clip-rule="evenodd" d="M87.5939 75.4488C87.4638 75.6396 87.3289 75.8271 87.1894 76.0113C86.8091 76.5134 86.3946 76.9904 85.9483 77.4387C84.646 78.7466 83.098 79.7852 81.3936 80.4934C79.6892 81.2015 77.8613 81.5656 76.0156 81.5657L45.9474 81.5657C42.6337 81.5657 39.9474 84.252 39.9474 87.5657C39.9474 90.8794 42.6337 93.5657 45.9474 93.5657C62.9206 93.5657 79.2011 100.297 91.2179 112.284C103.235 124.272 110.007 140.537 110.049 157.51C110.057 160.824 112.75 163.504 116.064 163.495C119.377 163.487 122.057 160.794 122.049 157.481C122 137.33 113.96 118.021 99.6935 103.789C95.1322 99.2393 90.0535 95.327 84.5959 92.1098C85.0674 91.945 85.5347 91.7665 85.9971 91.5744C89.1608 90.26 92.0339 88.3341 94.4512 85.9065C95.045 85.3102 95.6084 84.6864 96.1399 84.0378C99.28 82.4531 102.067 80.2578 104.341 77.5858C109.198 83.4126 116.504 87.1223 124.682 87.1223C132.948 87.1223 140.323 83.3326 145.179 77.3977C150.034 83.382 157.441 87.2084 165.746 87.2084C171.023 87.2084 175.937 85.664 180.064 83.0031V98.7341C180.064 127.979 168.828 148.333 147.609 169.679L139.257 176.805V195.982C139.257 199.296 141.944 201.982 145.257 201.982C148.571 201.982 151.257 199.296 151.257 195.982V182.341L155.78 178.482L155.952 178.309C178.786 155.386 192.064 132.128 192.064 98.7341V63.7144C192.177 62.7173 192.236 61.7035 192.236 60.6762V36.1068C192.236 21.4655 180.388 9.57467 165.746 9.5746C159.113 9.5746 153.052 12.0156 148.408 16.0475C144.071 7.32574 135.081 1.32747 124.682 1.32741C116.857 1.32741 109.829 4.72434 104.982 10.1226C104.511 9.52415 104.014 8.94526 103.491 8.3877C101.01 5.74038 98.0119 3.63016 94.6825 2.1875C91.353 0.744827 87.7624 2.191e-05 84.1337 0C80.505 0 76.9145 0.744807 73.5849 2.1875C70.2554 3.63019 67.2568 5.74023 64.7753 8.3877C64.306 8.88836 63.8571 9.40623 63.4294 9.93998C63.0016 9.40623 62.5527 8.88836 62.0834 8.3877C59.6018 5.74023 56.6034 3.63016 53.2738 2.1875C49.9443 0.744897 46.3546 2.21703e-05 42.726 0C39.0972 0 35.5067 0.744806 32.1771 2.1875C28.8476 3.63019 25.8491 5.74023 23.3676 8.3877C20.8861 11.0351 18.9738 14.1634 17.7494 17.5791C16.5526 20.9179 16.0403 24.4623 16.2367 28.002V58.6278C5.81789 69.37 -0.0109064 83.7556 1.53207e-05 98.7336L0.00978095 100.291C0.417226 132.855 13.6346 155.745 36.1123 178.31L36.2842 178.482L40.8067 182.34V195.982C40.8067 199.295 43.4929 201.982 46.8067 201.982C50.1203 201.982 52.8067 199.295 52.8067 195.982V176.806L44.4492 169.674C23.2338 148.329 12 127.971 12 98.7287C11.9903 86.7551 16.6961 75.2601 25.0977 66.7307C25.3755 66.4538 25.6566 66.1809 25.9408 65.9119C26.1778 65.6875 26.4171 65.4659 26.6584 65.2471C34.7101 57.9479 45.1197 53.7595 56.0059 53.4631L57.1309 53.4465H76.0156C79.7329 53.4466 83.2982 54.9235 85.9268 57.552C88.5553 60.1806 90.0322 63.7458 90.0322 67.4631V67.4885C90.0402 69.3342 89.6833 71.1638 88.9824 72.8713C88.61 73.7788 88.1442 74.6424 87.5939 75.4488ZM110.193 27.8596C110.193 26.6981 110.329 25.5688 110.585 24.4866C112.103 18.0805 117.847 13.3274 124.682 13.3274C132.673 13.3275 139.172 19.822 139.172 27.8596V60.5901C139.172 68.6278 132.673 75.1223 124.682 75.1223C117.648 75.1223 111.769 70.0886 110.464 63.3998C110.286 62.491 110.193 61.5516 110.193 60.5901V27.8596ZM180.236 60.6762C180.236 61.4402 180.177 62.1903 180.064 62.9222C178.987 69.8898 172.977 75.2083 165.746 75.2084C157.756 75.2084 151.257 68.7139 151.257 60.6762V36.1068C151.257 28.0691 157.756 21.5746 165.746 21.5746C173.737 21.5747 180.236 28.0692 180.236 36.1068V56.0661V60.6762ZM98.1931 53.8608C98.3404 54.101 98.4837 54.3434 98.623 54.5879V27.665L98.6357 27.4717C98.7091 26.338 98.649 25.2025 98.4588 24.0883C98.3163 23.2533 98.1006 22.4303 97.8134 21.6289C97.1428 19.758 96.0955 18.0439 94.7363 16.5938C93.3771 15.1437 91.7347 13.9884 89.9111 13.1982C88.0874 12.4081 86.1212 12 84.1337 12C82.1463 12 80.18 12.4081 78.3564 13.1982C76.5328 13.9884 74.8903 15.1438 73.5312 16.5938C72.172 18.0438 71.1247 19.7579 70.454 21.6289C69.7834 23.4998 69.5033 25.4884 69.6318 27.4717L69.6445 27.665V41.4465H76.0156C82.9155 41.4466 89.5332 44.1877 94.4121 49.0666C95.8682 50.5227 97.1339 52.1337 98.1931 53.8608ZM57.2152 41.4465V27.665L57.2279 27.4717C57.3564 25.4884 57.0762 23.4998 56.4057 21.6289C55.735 19.758 54.6877 18.0439 53.3285 16.5938C51.9694 15.1437 50.3269 13.9884 48.5033 13.1982C46.6797 12.4081 44.7134 12 42.726 12C40.7385 12 38.7722 12.4081 36.9486 13.1982C35.1251 13.9884 33.4826 15.1438 32.1234 16.5938C30.7642 18.0439 29.7169 19.7579 29.0463 21.6289C28.3757 23.4998 28.0955 25.4884 28.224 27.4717L28.2367 27.665V49.2939C36.925 44.2225 46.8698 41.4726 57.1006 41.4465H57.2152Z" fill="#020202"/>
</svg>
