<svg width="192" height="215" viewBox="0 0 192 215" fill="none" xmlns="http://www.w3.org/2000/svg">
<path d="M148.159 37.758V117.154C148.159 120.467 150.845 123.153 154.159 123.154C157.472 123.154 160.159 120.467 160.159 117.154L160.159 53.6372C160.159 48.2176 164.618 43.7584 170.038 43.7583C175.458 43.7583 179.917 48.2175 179.917 53.6372V117.154C179.917 148.107 173.728 178.238 161.38 206.022C160.034 209.05 161.398 212.596 164.426 213.942C167.454 215.288 171 213.924 172.346 210.896C185.404 181.515 191.917 149.717 191.917 117.154V53.6372C191.917 41.5901 182.085 31.7583 170.038 31.7583C166.376 31.7583 162.919 32.6669 159.88 34.27C158.2 23.8695 149.14 15.8791 138.28 15.8791C134.618 15.8792 131.16 16.7877 128.122 18.3908C126.442 7.99036 117.382 0 106.522 0C95.6612 0.000116003 86.6012 7.99033 84.9216 18.3906C81.8829 16.7876 78.4256 15.8792 74.7635 15.8791C62.7164 15.8791 52.8848 25.7109 52.8846 37.758V118.566L40.2626 96.6887L40.2108 96.5998L39.9012 96.0989C33.3068 85.689 20.1241 82.4974 9.39439 90.008L9.34752 90.0413C2.08259 95.2306 -2.73932 105.161 1.71275 115.431C14.6589 150.167 34.0496 183.279 58.2987 211.57C60.4552 214.085 64.2427 214.377 66.7587 212.221C69.2746 210.064 69.5666 206.276 67.41 203.76C44.0578 176.516 25.3607 144.579 12.9003 111.092C12.857 110.976 12.81 110.861 12.7596 110.747C11.0047 106.798 12.513 102.534 16.3085 99.8157C21.2702 96.3656 26.8628 97.7085 29.9032 102.746L53.6874 143.971C55.0446 146.323 57.8128 147.471 60.4364 146.769C63.0599 146.066 64.8845 143.689 64.8846 140.973V37.758C64.8848 32.3383 69.3438 27.8791 74.7635 27.8791C80.1833 27.8792 84.6423 32.3384 84.6424 37.758V117.154C84.6424 120.467 87.3288 123.153 90.6424 123.154C93.9562 123.154 96.6424 120.467 96.6424 117.154L96.6426 21.8789C96.6428 16.4593 101.102 12.0001 106.522 12C111.941 12 116.4 16.4592 116.4 21.8789V117.154C116.401 120.468 119.087 123.154 122.4 123.154C125.714 123.154 128.4 120.468 128.4 117.154L128.401 37.758C128.401 32.3384 132.86 27.8793 138.28 27.8791C143.7 27.8791 148.159 32.3383 148.159 37.758Z" fill="black"/>
</svg>
