<svg width="211" height="244" viewBox="0 0 211 244" fill="none" xmlns="http://www.w3.org/2000/svg">
<path fill-rule="evenodd" clip-rule="evenodd" d="M0.0203307 86.8C0.0208333 86.8133 0.0214921 86.8256 0.0220844 86.8367ZM193.686 161.476C193.687 161.477 193.686 161.476 193.686 161.476ZM193.686 161.476L193.81 161.61L193.657 161.446C193.655 161.444 193.659 161.448 193.657 161.446C193.659 161.449 193.669 161.457 193.671 161.46C193.673 161.463 193.683 161.473 193.686 161.476Z" fill="black"/>
<path d="M188.087 56.1053C181.261 26.7416 137.255 -10.8983 68.3699 2.96467C32.9192 10.099 15.583 31.101 7.35426 50.3963C3.28861 59.9299 1.4636 68.975 0.648209 75.6219C0.23937 78.9547 0.0812624 81.7118 0.0261385 83.6619C-0.00144079 84.6377 -0.00306845 85.4139 0.00270098 85.9617C0.00558468 86.2355 0.00999659 86.4526 0.0144197 86.6092C0.0166294 86.6874 0.01858 86.7524 0.0203307 86.8C0.0208333 86.8133 0.0214921 86.8256 0.0220844 86.8367L0.0232088 86.8592L0.0241854 86.8797C0.0243155 86.8827 0.0241854 86.8953 0.0241854 86.8953C0.0274994 86.9689 0.0328141 87.0427 0.0388338 87.116C1.25735 101.972 4.3809 119.078 13.5779 132.559C17.2085 137.865 20.3579 140.456 22.4942 142.214C23.0891 142.703 23.6057 143.128 24.032 143.529C25.7872 145.18 28.118 147.971 32.1463 158.577C38.9218 176.416 31.8736 189.228 25.9756 199.949C25.6055 200.622 25.2389 201.288 24.8816 201.945C23.2984 204.856 24.3742 208.499 27.2849 210.083C30.1959 211.666 33.8394 210.59 35.4226 207.679C35.7944 206.995 36.1921 206.278 36.608 205.529C42.5363 194.843 52.1651 177.488 43.364 154.316C39.0825 143.044 35.9555 138.269 32.2527 134.787C31.2244 133.82 30.36 133.107 29.5588 132.446C27.8026 130.997 26.3503 129.799 24.1453 126.731L23.4812 125.783C16.1136 114.979 13.1882 100.519 12.0086 86.2567C12.0061 86.1676 12.0037 86.0263 12.0017 85.8358C11.9975 85.4335 11.9983 84.8123 12.0213 84.0008C12.0672 82.3763 12.2019 79.997 12.5593 77.0828C13.2767 71.2355 14.8786 63.3428 18.3923 55.1033C25.323 38.8518 39.7551 20.9645 70.7371 14.7293C134.717 1.85367 171.356 37.1307 176.398 58.8221C179.384 71.6663 181.518 81.0397 182.576 88.4403C183.551 95.2654 183.517 99.8761 182.637 103.548C181.742 104.933 180.982 106.501 180.567 108.312C180.039 110.619 180.173 112.874 180.714 115.097C181.699 119.146 184.277 123.869 187.735 129.779C189.201 132.285 190.978 134.884 192.579 137.226C193.06 137.929 193.524 138.609 193.96 139.256C196.007 142.296 197.433 144.64 198.117 146.472C198.288 146.931 198.377 147.258 198.423 147.479C197.889 147.774 196.501 148.367 193.379 148.742C193.249 148.758 193.12 148.777 192.992 148.801C189.169 149.515 185.767 150.855 183.449 153.356C180.851 156.159 180.44 159.492 180.931 162.164C181.375 164.578 182.537 166.532 183.322 167.671C183.342 167.7 183.363 167.729 183.384 167.757C183.4 167.779 183.415 167.8 183.43 167.822C183.005 167.948 182.401 168.083 181.566 168.178C179.593 168.402 177.858 169.588 176.933 171.346C176.009 173.102 176.013 175.204 176.945 176.957L176.951 176.967L176.966 176.995L176.992 177.047C177.011 177.084 177.037 177.133 177.067 177.192C177.097 177.251 177.132 177.32 177.172 177.399C177.329 177.714 177.553 178.174 177.806 178.727C178.241 179.676 178.723 180.818 179.11 181.942C176.945 182.43 174.903 183.395 173.195 185.147C170.723 187.684 169.851 191.082 169.287 193.373C169.285 193.379 169.284 193.385 169.283 193.39C169.053 194.339 168.917 195.604 168.822 196.492C168.811 196.59 168.801 196.686 168.791 196.774C168.788 196.806 168.784 196.836 168.781 196.867C168.655 197.997 168.511 199.162 168.269 200.362C167.774 202.819 166.957 204.932 165.595 206.457C163.498 208.806 157.183 212.656 137.161 205.085C135.304 204.193 133.27 203.691 131.128 203.808C128.839 203.934 126.844 204.746 125.191 205.871C122.104 207.973 119.973 211.33 118.422 214.349C116.797 217.511 115.375 221.193 114.079 224.722C113.696 225.766 113.325 226.793 112.959 227.803C112.043 230.338 111.164 232.77 110.227 235.099C108.991 238.174 110.482 241.668 113.556 242.904C116.631 244.14 120.125 242.65 121.361 239.575C122.383 237.032 123.376 234.286 124.32 231.675C124.668 230.713 125.01 229.768 125.344 228.859C126.631 225.353 127.837 222.28 129.094 219.834C130.352 217.387 131.319 216.267 131.855 215.855L131.875 215.864C131.922 215.884 131.978 215.907 132.041 215.939C132.236 216.039 132.436 216.128 132.64 216.206C153.939 224.315 167.159 222.723 174.547 214.449C177.932 210.657 179.342 206.163 180.033 202.733C180.384 200.991 180.574 199.393 180.708 198.192C180.73 197.995 180.749 197.817 180.767 197.653C180.807 197.284 180.84 196.985 180.875 196.707C180.901 196.497 180.921 196.365 180.933 196.291L180.944 196.223C181.227 195.076 181.44 194.367 181.638 193.88C181.653 193.844 181.667 193.812 181.68 193.782C181.702 193.731 181.722 193.688 181.74 193.65C182.003 193.589 182.521 193.509 183.424 193.509C185.334 193.509 187.523 192.937 189.274 191.222C190.928 189.602 191.5 187.634 191.689 186.215C192.041 183.584 191.346 180.844 190.789 179.047C190.66 178.63 190.52 178.218 190.378 177.812C190.73 177.603 191.072 177.38 191.4 177.14C193.8 175.383 195.132 173.074 195.655 170.748C196.144 168.573 195.877 166.643 195.584 165.405C195.431 164.76 195.251 164.22 195.1 163.822C195.024 163.621 194.953 163.45 194.893 163.313C194.882 163.288 194.872 163.264 194.862 163.242C194.844 163.202 194.828 163.166 194.812 163.133C194.8 163.107 194.789 163.082 194.779 163.06L194.757 163.015L194.751 163.002C194.504 162.496 194.187 162.027 193.81 161.61L193.657 161.446L193.671 161.46L193.686 161.476C193.675 161.464 193.642 161.428 193.594 161.372C193.528 161.293 193.441 161.184 193.344 161.055C193.767 160.916 194.33 160.765 195.067 160.622C200.336 159.96 205.252 158.43 208.154 154.709C211.47 150.456 210.59 145.573 209.359 142.276C208.115 138.943 205.907 135.515 203.914 132.554C203.369 131.745 202.834 130.961 202.311 130.196C200.765 127.933 199.326 125.826 198.093 123.719C194.437 117.47 192.867 114.29 192.373 112.26C192.174 111.444 192.236 111.115 192.264 110.991C192.302 110.826 192.428 110.432 193.018 109.625C193.434 109.056 193.747 108.418 193.942 107.741C195.727 101.543 195.605 94.7883 194.455 86.742C193.308 78.7188 191.035 68.7884 188.087 56.1053Z" fill="black"/>
</svg>
