<svg width="264" height="170" viewBox="0 0 264 170" fill="none" xmlns="http://www.w3.org/2000/svg">
<path d="M168.8 0.00133542C181.596 -0.0862636 194.049 4.13968 204.149 11.9965L256.725 52.89C258.792 54.4971 260.464 56.5547 261.615 58.9066C262.719 61.1618 263.312 63.6305 263.359 66.1381C263.365 66.2472 263.369 66.3575 263.369 66.4681C263.369 68.8742 262.862 71.2531 261.885 73.4515L253.783 91.684C249.131 102.151 242.888 111.837 235.279 120.4L224.345 132.702C214.167 144.147 201.68 153.309 187.708 159.583C173.736 165.857 158.593 169.102 143.277 169.105H120.095C104.778 169.103 89.6349 165.858 75.6621 159.583C61.6893 153.309 49.2027 144.148 39.0244 132.703L28.0898 120.401C20.7185 112.106 14.6296 102.756 10.0264 92.6634L9.58594 91.684L1.48438 73.4554L1.30664 73.0404C0.445245 70.9593 0 68.7243 0 66.4672C1.6427e-05 61.1614 2.44769 56.1475 6.64258 52.8881L59.2148 11.9965C69.3156 4.13955 81.769 -0.0862786 94.5654 0.00133542C107.361 0.0890441 119.755 4.48475 129.747 12.4789L131.683 14.0277L133.617 12.4799C143.609 4.48549 156.003 0.0889489 168.8 0.00133542ZM12 66.4672C12 67.1027 12.1172 67.7335 12.3438 68.3246L12.4482 68.5756L20.5518 86.8099C24.7025 96.1481 30.2703 104.789 37.0586 112.428L47.9922 124.728L48.8467 125.676C57.7402 135.415 68.5387 143.231 80.5781 148.637C93.0057 154.217 106.474 157.103 120.097 157.105H143.275C156.898 157.102 170.365 154.216 182.792 148.636C195.219 143.056 206.325 134.908 215.377 124.728L226.31 112.428C233.098 104.789 238.667 96.1482 242.817 86.8099L250.92 68.5785C251.204 67.9397 251.355 67.2486 251.366 66.5502C251.366 66.5216 251.364 66.4929 251.364 66.4642C251.364 65.6731 251.184 64.8916 250.836 64.181C250.488 63.4706 249.983 62.849 249.358 62.3636L196.782 21.4681C188.81 15.267 178.981 11.9322 168.882 12.0013C158.782 12.0705 149.001 15.5395 141.114 21.849L135.867 26.0482C135.851 26.0611 135.835 26.0736 135.818 26.0863C134.638 27.0109 133.182 27.513 131.683 27.5131C130.183 27.5131 128.727 27.0108 127.547 26.0863C127.531 26.0736 127.514 26.061 127.498 26.0482L122.251 21.849C114.365 15.5394 104.582 12.0705 94.4824 12.0013C84.3831 11.9323 74.5549 15.2673 66.583 21.4681L14.0078 62.3627C12.7435 63.345 12 64.8605 12 66.4672Z" fill="black"/>
<path d="M228.016 71.2167C228 69.4076 227.414 67.645 226.344 66.1924L226.122 65.9033L225.887 65.624C224.688 64.255 223.082 63.2999 221.299 62.9014C221.295 62.9004 221.288 62.8985 221.284 62.8975L182.585 54.3525C172.181 52.0504 161.344 52.6657 151.269 56.1318L149.168 56.8545C137.836 60.7479 125.527 60.7483 114.194 56.8545L111.887 56.0596L110.954 55.748C101.289 52.6137 90.9624 52.0781 81.0152 54.2051L42.3335 62.4932C40.4782 62.8891 38.8033 63.8716 37.5533 65.29L37.3081 65.5801C36.0356 67.1558 35.3436 69.1212 35.3481 71.1464C35.3484 72.6888 35.7526 74.2047 36.521 75.5424C37.2919 76.8844 38.4018 78.0002 39.7398 78.7778L68.396 95.4536C73.6797 98.53 79.3644 100.864 85.2857 102.387L95.6861 105.057C119.301 111.134 144.073 111.11 167.675 104.985L178.231 102.25C184.054 100.739 189.645 98.445 194.851 95.4301L223.734 78.7104L223.747 78.7026C225.045 77.9469 226.122 76.8639 226.872 75.5619C227.615 74.2701 228.009 72.8073 228.016 71.3172L228.016 71.2826L228.016 71.2662L228.016 71.2167ZM179.998 66.0693L210.126 72.7224L188.837 85.0453C184.572 87.5158 179.991 89.3958 175.219 90.6342L164.663 93.3686C143.028 98.9837 120.318 99.0058 98.6714 93.435L88.273 90.7651C83.4204 89.5166 78.7622 87.6037 74.4322 85.0825L52.8362 72.5148L83.524 65.9404C91.6619 64.2003 100.12 64.7068 107.992 67.4082L110.295 68.2021C124.156 72.9645 139.21 72.9636 153.071 68.2012L155.173 67.4785C163.159 64.7312 171.752 64.2441 179.998 66.0693Z" fill="black"/>
</svg>
